<svg width="31" height="43" viewBox="0 0 31 43" fill="none" xmlns="http://www.w3.org/2000/svg">
<g clip-path="url(#clip0_1_18)">
<path d="M15.4771 43C15.8639 43 16.2319 42.834 16.488 42.5451C17.0823 41.8733 31.0478 25.9619 31 15.4699C30.9609 6.9398 24.0082 0 15.5 0C6.95276 0 0 6.94248 0 15.476C0 25.9619 13.8725 41.8699 14.4635 42.5418C14.7196 42.8327 15.0687 42.9906 15.4771 43ZM15.4771 10.5C19.6224 10.5 20 12.5 20.5 15C20.5 20.5 15.4771 20.5 15.4771 20.5C15.4771 20.5 10.5 19.5 10.5 16C10.5 12 13.5 10.5 15.4771 10.5Z" fill="#DD663B"/>
<path d="M20.8913 15.4531C20.8913 12.4895 18.4726 10.0781 15.5 10.0781C12.5274 10.0781 10.1087 12.4895 10.1087 15.4531C10.1087 18.4168 12.5274 20.8281 15.5 20.8281C18.4726 20.8281 20.8913 18.4168 20.8913 15.4531ZM12.8044 15.4531C12.8044 13.971 14.0134 12.7656 15.5 12.7656C16.9867 12.7656 18.1957 13.971 18.1957 15.4531C18.1957 16.9353 16.9867 18.1406 15.5 18.1406C14.0134 18.1406 12.8044 16.9353 12.8044 15.4531Z" fill="#222222"/>
<path d="M15.4771 43C15.8639 43 16.2319 42.834 16.488 42.5451C17.0823 41.8733 31.0478 25.9619 31 15.4699C30.9609 6.9398 24.0082 0 15.5 0C6.95276 0 0 6.94248 0 15.476C0 25.9619 13.8725 41.8699 14.4635 42.5418C14.7196 42.8327 15.0687 42.9906 15.4771 43ZM15.5 2C22.5282 2 28.9677 8.44531 29 15.5C29.0364 23.4443 18.6997 36.6481 15.5 40.5C12.3158 36.6455 2 23.4537 2 15.5C2 8.44867 8.43941 2 15.5 2Z" fill="#222222"/>
</g>
<defs>
<clipPath id="clip0_1_18">
<rect width="31" height="43" fill="white"/>
</clipPath>
</defs>
</svg>
